<svg xmlns="http://www.w3.org/2000/svg" xmlns:xlink="http://www.w3.org/1999/xlink" width="200" height="200" viewBox="0 0 200 200">
  <defs>
    <clipPath id="clip-Nutrition-icon-Calcium">
      <rect width="200" height="200"/>
    </clipPath>
  </defs>
  <g id="Nutrition-icon-Calcium" clip-path="url(#clip-Nutrition-icon-Calcium)">
    <g id="Group_5417" data-name="Group 5417" transform="translate(19.041 -48.579)">
      <path id="Path_15321" data-name="Path 15321" d="M120.094,114.8c-5.9-5.894-21.418-4.743-30.147-3.532a66.5,66.5,0,0,1-18.317,0c-8.726-1.21-24.252-2.362-30.146,3.532-6.729,6.729-5.29,23.941-.012,36.693,3.616,8.738,6.049,18.964,8.2,27.986,3.558,14.957,6.129,25.765,12.7,25.765,10.02,0,10.951-19.19,11.025-21.479-.051-3.382.579-12.937,4.067-16.479a3.831,3.831,0,0,1,2.871-1.263c5.961,0,7.708,13.012,7.851,17.571,0,.036,0,.073.006.109A64.84,64.84,0,0,0,90,193.9c2.037,7.528,5.135,11.345,9.209,11.345,5.955,0,8.555-10.269,12.491-25.815,2.28-9.007,4.864-19.217,8.412-27.948C125.318,138.663,126.735,121.439,120.094,114.8Zm-12.357,63.626c-2.43,9.593-5.755,22.731-8.529,22.731-3.7,0-6.322-10.571-6.942-17.748a50.191,50.191,0,0,0-1.524-10.183c-2.5-9.331-7.043-11.29-10.409-11.29a7.886,7.886,0,0,0-5.787,2.485c-5.309,5.4-5.261,17.992-5.237,19.308-.19,5.686-2.136,17.429-6.94,17.429-3.343,0-6.2-12.02-8.727-22.624-2.18-9.171-4.654-19.564-8.394-28.6-5.255-12.7-5.655-27.461-.875-32.242,3.293-3.292,13.525-4.2,26.695-2.372a70.829,70.829,0,0,0,19.44,0c13.174-1.83,23.4-.92,26.7,2.372,4.712,4.712,4.31,19.483-.879,32.254C112.671,158.933,110.049,169.288,107.737,178.424Z" transform="translate(0 -8.707)"/>
      <path id="Path_15322" data-name="Path 15322" d="M102.889,121.9a2.043,2.043,0,1,0-.118,4.085c2.89.084,3.623.735,3.7.808.43.431.9,1.754.795,4.066a2.045,2.045,0,0,0,1.953,2.131l.091,0a2.042,2.042,0,0,0,2.039-1.954c.1-2.249-.166-5.313-1.988-7.136C108.1,122.642,105.982,121.986,102.889,121.9Z" transform="translate(1.387 -8.455)"/>
    </g>
  </g>
</svg>
