<svg xmlns="http://www.w3.org/2000/svg" xmlns:xlink="http://www.w3.org/1999/xlink" width="200" height="200" viewBox="0 0 200 200">
  <defs>
    <clipPath id="clip-Nutrition-icon-cultures">
      <rect width="200" height="200"/>
    </clipPath>
  </defs>
  <g id="Nutrition-icon-cultures" clip-path="url(#clip-Nutrition-icon-cultures)">
    <g id="Group_5415" data-name="Group 5415" transform="translate(-15.687 -13.11)">
      <path id="Path_15312" data-name="Path 15312" d="M170.562,57.776a50.144,50.144,0,0,0-76.15,64.758l-5.3,5.3-1.136-1.136a1.72,1.72,0,0,0-2.315-.108L46.427,159.154a1.723,1.723,0,0,0-.588.99c-.066.336-1.536,8.308,6.255,16.1,5.571,5.572,11.234,6.407,14.133,6.407a10.923,10.923,0,0,0,1.968-.151,1.718,1.718,0,0,0,.989-.589l32.569-39.238a1.721,1.721,0,0,0-.108-2.316l-1.136-1.136,5.3-5.3a50.144,50.144,0,0,0,64.758-76.151ZM66.971,179.189c-1.719.136-7.037.029-12.445-5.378s-5.511-10.737-5.378-12.444l37.508-31.132L98.1,141.682Zm101.157-52.928a46.684,46.684,0,1,1,0-66.053A46.76,46.76,0,0,1,168.129,126.261Z" transform="translate(0 0)"/>
      <circle id="Ellipse_118" data-name="Ellipse 118" cx="4.242" cy="4.242" r="4.242" transform="translate(124.826 125.554) rotate(-67.5)"/>
      <path id="Path_15313" data-name="Path 15313" d="M114.828,98.187a4.242,4.242,0,1,0,4.241,4.242A4.242,4.242,0,0,0,114.828,98.187Z" transform="translate(-9.067 -7.695)"/>
      <circle id="Ellipse_119" data-name="Ellipse 119" cx="4.242" cy="4.242" r="4.242" transform="translate(150.2 96.673) rotate(-67.5)"/>
      <path id="Path_15314" data-name="Path 15314" d="M141.854,74.319a4.242,4.242,0,1,0-4.241-4.241A4.242,4.242,0,0,0,141.854,74.319Z" transform="translate(-12.844 -3.175)"/>
      <path id="Path_15315" data-name="Path 15315" d="M143.815,86.417a1.719,1.719,0,0,0-2.095-1.239c-5.182,1.333-9.347.933-12.373-1.185-4.479-3.133-5.134-9.13-5.145-9.231a1.72,1.72,0,0,0-3.426.323c.029.31.774,7.63,6.567,11.706a14.971,14.971,0,0,0,8.828,2.6,25.847,25.847,0,0,0,6.4-.879A1.721,1.721,0,0,0,143.815,86.417Z" transform="translate(-10.49 -4.205)"/>
      <path id="Path_15316" data-name="Path 15316" d="M177.854,76.12c-4.849-2-11.764-1.739-16.63,5.02a1.721,1.721,0,0,0,2.792,2.011c3.137-4.356,7.817-5.795,12.524-3.851,3.682,1.523,7.05,5.3,6.362,9.564a1.721,1.721,0,0,0,1.425,1.973,1.676,1.676,0,0,0,.276.022,1.722,1.722,0,0,0,1.7-1.447C187.158,84.087,183.606,78.5,177.854,76.12Z" transform="translate(-16.097 -4.459)"/>
      <path id="Path_15317" data-name="Path 15317" d="M159.836,116.359c-10.816-1.661-10.153-11.557-10.119-11.991a1.72,1.72,0,0,0-3.428-.3c-.41,4.671,1.785,13.962,13.025,15.687a7.191,7.191,0,0,1,5.248,2.991c2.272,3.413,1.025,8.568,1.013,8.617a1.72,1.72,0,1,0,3.335.845c.068-.269,1.639-6.654-1.472-11.35A10.564,10.564,0,0,0,159.836,116.359Z" transform="translate(-14.049 -8.298)"/>
      <path id="Path_15318" data-name="Path 15318" d="M129.041,117.066c-3.169.707-8.909,3.937-7.952,11.1a1.721,1.721,0,0,0,3.411-.458c-.762-5.7,4.67-7.136,5.3-7.282a1.72,1.72,0,0,0-.756-3.357Z" transform="translate(-10.52 -10.327)"/>
    </g>
  </g>
</svg>
