<svg xmlns="http://www.w3.org/2000/svg" xmlns:xlink="http://www.w3.org/1999/xlink" width="200" height="200" viewBox="0 0 200 200">
  <defs>
    <clipPath id="clip-Nutrition-icon-Less_Sugar">
      <rect width="200" height="200"/>
    </clipPath>
  </defs>
  <g id="Nutrition-icon-Less_Sugar" data-name="Nutrition-icon-Less Sugar" clip-path="url(#clip-Nutrition-icon-Less_Sugar)">
    <g id="Group_5416" data-name="Group 5416" transform="translate(-25.372 -25.629)">
      <path id="Path_15319" data-name="Path 15319" d="M204.275,114.252h-88a124.881,124.881,0,0,1-9.548-9.944c-6.769-7.643-12.115-13.679-23.581-13.679-10.879,0-15.761,5.5-21.941,12.453a101.359,101.359,0,0,1-11.166,11.191,9.992,9.992,0,0,0-7.523,3.806,9.83,9.83,0,0,0-1.874,8.415,44.127,44.127,0,0,0,83.026,8.154,6.1,6.1,0,0,1,5.568-3.467h75.039a6.362,6.362,0,0,0,6.354-6.354v-4.222A6.361,6.361,0,0,0,204.275,114.252Zm-41.2,4h2.273v8.929h-2.273Zm-4,8.929h-2.271v-8.929h2.271Zm10.273-8.929h2.271v8.929H169.35Zm6.271,0h2.272v8.929h-2.272Zm6.272,0h2.272v8.929h-2.272Zm6.272,0h2.272v8.929h-2.272Zm6.272,0h2.271v8.929h-2.271ZM64.2,105.738c5.942-6.689,9.867-11.109,18.95-11.109,9.666,0,14.01,4.9,20.586,12.331,2,2.26,4.187,4.727,6.748,7.292H56.1C59.311,111.238,61.865,108.362,64.2,105.738Zm55.837,27.24a40.128,40.128,0,0,1-75.5-7.41,5.857,5.857,0,0,1,1.122-5.01,6.031,6.031,0,0,1,4.756-2.306h102.4v8.929h-23.57A10.106,10.106,0,0,0,120.033,132.978Zm86.6-8.151a2.357,2.357,0,0,1-2.354,2.354h-3.567v-8.929h3.567a2.356,2.356,0,0,1,2.354,2.353Z"/>
      <path id="Path_15320" data-name="Path 15320" d="M78.741,100a14.629,14.629,0,0,0-7.673,5.743,2,2,0,1,0,3.315,2.238,10.63,10.63,0,0,1,5.567-4.169A2,2,0,1,0,78.741,100Z"/>
    </g>
  </g>
</svg>
