<svg xmlns="http://www.w3.org/2000/svg" xmlns:xlink="http://www.w3.org/1999/xlink" width="200" height="200" viewBox="0 0 200 200">
  <defs>
    <clipPath id="clip-Nutrition-icon-Lactose">
      <rect width="200" height="200"/>
    </clipPath>
  </defs>
  <g id="Nutrition-icon-Lactose" clip-path="url(#clip-Nutrition-icon-Lactose)">
    <g id="Group_5413" data-name="Group 5413" transform="translate(-22.452 -18.388)">
      <path id="Path_14793" data-name="Path 14793" d="M122.181,190.385c-13.9,0-21.939-3.323-26.232-6.11a9.919,9.919,0,0,1-4.5-8.368V121.2c0-1.808.044-3.633.129-5.424a91.062,91.062,0,0,1,8.7-33.845,54.776,54.776,0,0,0,4.78-23,1.831,1.831,0,0,1,1.832-1.832h30.58a1.831,1.831,0,0,1,1.832,1.832,56.834,56.834,0,0,0,6,24.838,65.575,65.575,0,0,1,5.832,17.427,113.65,113.65,0,0,1,1.777,20v54.7a9.919,9.919,0,0,1-4.5,8.368C144.12,187.062,136.085,190.385,122.181,190.385ZM108.7,60.769a57.965,57.965,0,0,1-5.093,22.7,87.412,87.412,0,0,0-8.363,32.482c-.083,1.733-.125,3.5-.125,5.249v54.7a6.27,6.27,0,0,0,2.828,5.3c3.877,2.517,11.231,5.519,24.237,5.519s20.36-3,24.237-5.519a6.27,6.27,0,0,0,2.828-5.3V121.2a110.1,110.1,0,0,0-1.719-19.354,61.941,61.941,0,0,0-5.51-16.451,60.931,60.931,0,0,1-6.346-24.628Z" transform="translate(0 -0.817)"/>
      <path id="Path_14794" data-name="Path 14794" d="M138.215,59.952h-30.37a6.283,6.283,0,0,1,0-12.565h30.37a6.283,6.283,0,0,1,0,12.565Zm-30.37-8.9a2.619,2.619,0,0,0,0,5.237h30.37a2.619,2.619,0,0,0,0-5.237Z" transform="translate(-0.85 0)"/>
      <path id="Path_14795" data-name="Path 14795" d="M134.268,113.136a25.132,25.132,0,0,1-15.069-4.959c-11.546-8.689-21.214-9.554-21.31-9.562a1.832,1.832,0,0,1,.293-3.652c.437.035,10.833.965,23.219,10.286,8.381,6.307,20.716,5.511,26.939-1.737a1.832,1.832,0,1,1,2.78,2.386C147.02,110.676,140.735,113.136,134.268,113.136Z" transform="translate(-0.399 -3.997)"/>
      <path id="Path_14796" data-name="Path 14796" d="M123.92,164.63a1.833,1.833,0,0,1-1.3-.537l-9.942-9.942a1.832,1.832,0,1,1,2.591-2.59l8.646,8.647,8.646-8.647a1.832,1.832,0,1,1,2.591,2.59l-9.942,9.942A1.833,1.833,0,0,1,123.92,164.63Z" transform="translate(-1.739 -8.709)"/>
      <path id="Path_14797" data-name="Path 14797" d="M124.832,162.695A1.832,1.832,0,0,1,123,160.863V129.832a1.832,1.832,0,1,1,3.664,0v31.031A1.832,1.832,0,0,1,124.832,162.695Z" transform="translate(-2.651 -6.774)"/>
      <path id="Path_14798" data-name="Path 14798" d="M111.354,190.863a1.814,1.814,0,0,1-.362-.036,35.764,35.764,0,0,1-7.729-2.429c-3.646-1.668-3.646-6.1-3.646-8.485V168.488a1.832,1.832,0,0,1,3.664,0v11.426c0,2.756.253,4.579,1.508,5.153a32.022,32.022,0,0,0,6.923,2.168,1.832,1.832,0,0,1-.357,3.628Z" transform="translate(-0.686 -10.023)"/>
      <path id="Path_14799" data-name="Path 14799" d="M143.619,97.987a1.833,1.833,0,0,1-1.727-1.219,66.091,66.091,0,0,0-3.011-7.127,64.22,64.22,0,0,1-4.443-11.9,1.832,1.832,0,0,1,3.544-.932,60.527,60.527,0,0,0,4.184,11.207,69.946,69.946,0,0,1,3.179,7.523,1.834,1.834,0,0,1-1.727,2.446Z" transform="translate(-3.607 -2.358)"/>
      <rect id="Rectangle_2798" data-name="Rectangle 2798" width="39.27" height="8.901" rx="4.451" transform="translate(102.546 49.219)"/>
    </g>
  </g>
</svg>
