<svg xmlns="http://www.w3.org/2000/svg" xmlns:xlink="http://www.w3.org/1999/xlink" width="200" height="200" viewBox="0 0 200 200">
  <defs>
    <clipPath id="clip-Nutrition-icon-Protein">
      <rect width="200" height="200"/>
    </clipPath>
  </defs>
  <g id="Nutrition-icon-Protein" clip-path="url(#clip-Nutrition-icon-Protein)">
    <g id="Group_5412" data-name="Group 5412" transform="translate(-14.526 -15.5)">
      <path id="Path_14781" data-name="Path 14781" d="M118.547,168.911H86.356a28.937,28.937,0,0,1-21.079-9.162,28.827,28.827,0,1,1,43.375-37.935,21.842,21.842,0,0,1,25.083.775l-.888-3.894a22.943,22.943,0,0,1-.532-6.518l.913-14.843a7.708,7.708,0,0,0-3.445-6.893l-7.228-4.76a7.28,7.28,0,0,1-10.33.046l-.5-.5-7.321,1.3a7.832,7.832,0,0,1-8.076-11.759l5.138-8.511a9.911,9.911,0,0,1,10.97-4.434l17.51,4.646a1.681,1.681,0,0,1,.715.393l19.128,17.693a1.7,1.7,0,0,1,.381.521l20.414,43.329a11.129,11.129,0,0,1-2.65,13.11l-16.485,14.8A49.192,49.192,0,0,1,118.547,168.911Zm-32.2-54.274q-.825,0-1.656.053a25.446,25.446,0,0,0,1.668,50.838h32.192a45.811,45.811,0,0,0,30.641-11.734L165.674,139a7.77,7.77,0,0,0,1.85-9.151L147.25,86.819,128.672,69.634l-17.1-4.538a6.512,6.512,0,0,0-7.207,2.913l-5.137,8.511a4.449,4.449,0,0,0,4.586,6.68L112,81.743a1.7,1.7,0,0,1,1.491.469l1.124,1.121a3.891,3.891,0,0,0,6.105-.781A1.692,1.692,0,0,1,123.11,82l8.535,5.62a11.1,11.1,0,0,1,4.96,9.925l-.913,14.844a19.587,19.587,0,0,0,.453,5.558l2.185,9.579a1.691,1.691,0,0,1-3,1.4,18.434,18.434,0,0,0-25.991-3.446,1.692,1.692,0,0,1-2.4-.343A25.371,25.371,0,0,0,86.344,114.637Z" transform="translate(0 0)"/>
      <path id="Path_14782" data-name="Path 14782" d="M147.4,99.055a1.691,1.691,0,0,1-1.605-1.156l-.96-2.882-3.188-2.054a1.691,1.691,0,0,1,.064-2.884l13.324-7.756a1.692,1.692,0,0,1,2.5,1.092L158,85.472l4.218,1.973a1.691,1.691,0,0,1,.148,2.985l-14.1,8.387A1.685,1.685,0,0,1,147.4,99.055Zm-1.6-7.441,1.368.881a1.694,1.694,0,0,1,.689.887l.485,1.455,9.549-5.681-2.077-.972a1.694,1.694,0,0,1-.934-1.162l-.138-.614Z" transform="translate(-12.858 -3.177)"/>
      <path id="Path_14783" data-name="Path 14783" d="M130.3,175.888a15.741,15.741,0,0,1-8.216-2.307,1.692,1.692,0,1,1,1.765-2.886,12.39,12.39,0,0,0,15.209-1.817,1.692,1.692,0,1,1,2.393,2.392A15.662,15.662,0,0,1,130.3,175.888Z" transform="translate(-9.835 -16.489)"/>
      <path id="Path_14784" data-name="Path 14784" d="M111.258,143.214a1.691,1.691,0,0,1-1.493-2.484,21.305,21.305,0,0,1,5.577-6.842,1.692,1.692,0,0,1,1.993,2.734,18.269,18.269,0,0,0-4.58,5.693A1.691,1.691,0,0,1,111.258,143.214Z" transform="translate(-8.029 -11.118)"/>
      <path id="Path_14785" data-name="Path 14785" d="M156.193,84.093,142.87,91.849l3.689,2.376,1.149,3.447,14.1-8.387-4.97-2.325Z" transform="translate(-13.167 -3.485)"/>
    </g>
  </g>
</svg>
